<?xml version="1.0" encoding="utf-8"?>
<!-- Generator: Adobe Illustrator 25.2.0, SVG Export Plug-In . SVG Version: 6.00 Build 0)  -->
<svg version="1.1" id="Layer_1" xmlns="http://www.w3.org/2000/svg" xmlns:xlink="http://www.w3.org/1999/xlink" x="0px" y="0px"
	 viewBox="0 0 677.66 200.11" style="enable-background:new 0 0 677.66 200.11;" xml:space="preserve">
<style type="text/css">
	.st0{fill:#F05423;}
	.st1{fill:#FFFFFF;}
	.st2{fill:#2A2C35;}
	.st3{fill:#1D1E1E;}
	.st4{clip-path:url(#SVGID_2_);fill:#6E768E;}
	.st5{clip-path:url(#SVGID_2_);fill:#F05423;}
	.st6{clip-path:url(#SVGID_4_);fill:url(#SVGID_5_);}
	.st7{clip-path:url(#SVGID_7_);fill:url(#SVGID_8_);}
	.st8{clip-path:url(#SVGID_10_);fill:#1D1E1E;}
	.st9{clip-path:url(#SVGID_12_);fill:#FFFFFF;}
	.st10{clip-path:url(#SVGID_14_);}
	.st11{fill:#D2D2D4;}
	.st12{fill:#DC4536;}
	.st13{fill:none;}
	.st14{fill:#F26F24;}
</style>
<g>
	<path class="st2" d="M675.15,158.67c0,6.77-5.31,12.17-11.95,12.17c-6.53,0-11.82-5.39-11.85-12.16
		c-0.03-6.82,5.39-12.2,11.94-12.19C669.84,146.49,675.15,151.93,675.15,158.67 M672.84,158.68c0-5.42-4.28-9.82-9.57-9.84
		c-5.3-0.01-9.65,4.42-9.63,9.82c0.01,5.43,4.31,9.82,9.6,9.82C668.54,168.48,672.84,164.1,672.84,158.68"/>
	<path class="st2" d="M665.95,159.9c0.9,1.53,1.8,3.04,2.73,4.61c-0.15,0.01-0.26,0.04-0.36,0.04c-0.8,0-1.61-0.01-2.42,0.01
		c-0.25,0.01-0.38-0.09-0.5-0.31c-0.56-1.13-1.15-2.25-1.72-3.38c-0.09-0.18-0.18-0.27-0.4-0.25c-0.38,0.03-0.77,0.01-1.19,0.01
		v3.89h-2.76c-0.01-0.12-0.02-0.26-0.02-0.39c0-3.72,0-7.44-0.01-11.16c0-0.26,0.01-0.46,0.35-0.46c1.42-0.03,2.84-0.1,4.25-0.07
		c0.59,0.02,1.19,0.2,1.74,0.42c2.84,1.1,2.91,4.76,1.06,6.43C666.48,159.49,666.23,159.68,665.95,159.9 M662.11,158.28
		c0.68,0.07,1.34,0.11,1.98-0.17c0.69-0.31,1.04-0.94,0.99-1.73c-0.06-0.7-0.42-1.21-1.17-1.36c-0.57-0.12-1.18-0.09-1.8-0.13
		V158.28z"/>
	<path class="st12" d="M320.87,181.36h313.77c2.13,0,2.11,0,1.73,2.11c-0.72,4.02-1.51,8.04-2.1,12.08
		c-0.18,1.23-0.67,1.47-1.68,1.36c-0.32-0.03-0.65,0-0.98,0H4.74c-2.4,0-2.44-0.01-2.03-2.43c0.68-3.98,1.45-7.93,2.13-11.92
		c0.16-0.93,0.48-1.38,1.45-1.22c0.42,0.07,0.86,0.01,1.3,0.01H320.87z"/>
	<path class="st2" d="M337.27,87.58c5.49,2.92,7.42,7.5,7.04,13.44c-0.44,6.71-2.06,13.21-3.19,19.8
		c-2.36,13.78-4.89,27.53-7.35,41.29c-0.32,1.79-0.68,3.58-0.97,5.38c-0.14,0.86-0.47,1.21-1.38,1.2
		c-5.81-0.04-11.62-0.06-17.43,0.01c-1.39,0.01-1.19-0.75-1.04-1.58c1.24-7.02,2.5-14.04,3.73-21.06
		c2.54-14.43,5.03-28.86,7.61-43.28c0.78-4.35-1.79-6.62-5.4-6.43c-4.33,0.23-8.69,0.11-13.03,0.02c-1.14-0.03-1.45,0.41-1.62,1.42
		c-1.65,9.64-3.33,19.28-5,28.92c-1.8,10.4-3.59,20.81-5.39,31.21c-0.57,3.27-1.18,6.53-1.7,9.8c-0.12,0.78-0.39,0.98-1.13,0.98
		c-5.81-0.03-11.62-0.06-17.43,0.01c-1.35,0.01-1.23-0.66-1.08-1.55c1.46-8.28,2.92-16.55,4.37-24.83
		c2.13-12.14,4.24-24.28,6.37-36.43c1.99-11.37,4.01-22.75,6-34.13c2.14-12.19,4.25-24.39,6.39-36.59
		c1.72-9.79,3.49-19.59,5.16-29.39c0.18-1.09,0.75-1.01,1.46-1.01c3.04,0,6.08,0,9.12,0c10.86,0,21.72-0.03,32.58,0.01
		c7.77,0.03,14.19,6.18,14.63,14.03c0.15,2.78-0.7,5.47-1.16,8.19c-2.43,14.28-4.92,28.55-7.39,42.81c-0.33,1.91-0.62,3.83-1.09,5.7
		C347.41,81.77,343.43,85.66,337.27,87.58 M316.31,76.7h6.67c0.11,0,0.22,0,0.33,0c3.38-0.12,5.88-2.19,6.57-5.56
		c0.65-3.19,1.19-6.4,1.76-9.61c1.92-10.77,3.86-21.53,5.73-32.3c0.63-3.63-1.17-5.75-4.79-5.78c-4.61-0.03-9.23,0.04-13.84-0.04
		c-1.07-0.02-1.41,0.4-1.56,1.35c-0.34,2.18-0.71,4.36-1.1,6.54c-2.63,14.79-5.26,29.57-7.94,44.35c-0.19,1.07,0.24,1.07,0.99,1.06
		C311.54,76.69,313.93,76.7,316.31,76.7"/>
	<path class="st2" d="M60.95,93.47c-6.67,0-13.18,0.02-19.69-0.02c-0.89,0-0.93,0.59-1.03,1.17c-1.31,7.4-2.62,14.81-3.93,22.21
		c-1.81,10.28-3.63,20.57-5.44,30.85c-1.13,6.42-2.29,12.84-3.37,19.28c-0.2,1.21-0.51,1.77-1.89,1.75c-5.43-0.1-10.86-0.1-16.29,0
		c-1.43,0.03-1.64-0.48-1.41-1.72c1.6-8.75,3.18-17.49,4.74-26.24c2.02-11.3,3.99-22.61,6.02-33.91c1.69-9.42,3.44-18.82,5.12-28.23
		c1.58-8.87,3.11-17.75,4.68-26.62c1.2-6.73,2.45-13.45,3.64-20.18c1.51-8.54,3-17.08,4.44-25.63c0.19-1.11,0.6-1.43,1.68-1.42
		c5.54,0.06,11.08,0.06,16.62,0c1.27-0.01,1.35,0.38,1.14,1.53c-2.17,11.96-4.25,23.93-6.38,35.89
		c-1.87,10.51-3.73,21.01-5.66,31.51c-0.21,1.13,0.03,1.3,1.04,1.29c5.92-0.04,11.84-0.06,17.76,0.01c1.17,0.02,1.58-0.35,1.77-1.47
		c1.18-6.87,2.42-13.72,3.64-20.58c1.9-10.72,3.8-21.43,5.71-32.15c0.87-4.89,1.77-9.78,2.59-14.68c0.18-1.09,0.59-1.37,1.66-1.36
		c5.48,0.07,10.97,0.08,16.45,0c1.35-0.02,1.53,0.41,1.31,1.6c-1.58,8.7-3.12,17.41-4.67,26.12c-2.25,12.68-4.49,25.35-6.73,38.03
		c-2.21,12.46-4.44,24.92-6.65,37.38c-2.45,13.82-4.9,27.65-7.36,41.48c-1.07,6.04-2.19,12.07-3.2,18.11
		c-0.18,1.04-0.63,1.22-1.51,1.22c-5.65-0.03-11.29-0.04-16.94,0.01c-1.09,0.01-1.27-0.35-1.09-1.35
		c3.59-20.02,7.14-40.06,10.72-60.08C59.26,102.69,60.1,98.14,60.95,93.47"/>
	<path class="st2" d="M199.35,4.81c6.73,0,13.46-0.03,20.19,0.01c8.36,0.03,15.2,8.17,13.76,16.59
		c-2.43,14.22-5.01,28.41-7.53,42.61c-1.01,5.66-1.91,11.33-3.07,16.96c-1.78,8.6-8.75,14.33-17.36,14.38
		c-7.82,0.05-15.64,0.04-23.46-0.02c-1.15-0.01-1.54,0.3-1.75,1.47c-1.97,11.43-4.01,22.84-6.04,34.26
		c-2.17,12.19-4.36,24.37-6.51,36.56c-0.16,0.92-0.54,1.13-1.39,1.13c-5.7-0.04-11.4-0.06-17.1,0.02c-1.19,0.01-1.2-0.45-1.04-1.35
		c2.11-11.81,4.22-23.61,6.31-35.43c2.36-13.28,4.68-26.57,7.04-39.84c2.3-13.01,4.63-26.01,6.93-39.01
		c2.58-14.58,5.15-29.17,7.74-43.75c0.17-0.98,0.54-1.95,0.55-2.93c0.01-1.56,0.76-1.74,2.05-1.72c6.9,0.06,13.79,0.03,20.69,0.03
		V4.81z M191.86,76.7c2.22,0,4.45,0.02,6.68,0c3.93-0.04,6.36-2.04,7.09-5.93c2.56-13.79,5.12-27.58,7.65-41.38
		c0.69-3.78-1.13-5.94-4.93-5.95c-4.5-0.01-9.01,0.1-13.51-0.05c-1.6-0.05-1.92,0.65-2.16,1.99c-1.98,11.09-4.02,22.17-6.04,33.26
		c-1.01,5.54-2.01,11.08-3.05,16.62c-0.21,1.15,0.11,1.52,1.28,1.47C187.19,76.64,189.52,76.7,191.86,76.7"/>
	<path class="st2" d="M170.6,4.96c-1.69,3.86-3.34,7.68-5.02,11.49c-8.78,19.94-17.56,39.87-26.34,59.81
		c-4.06,9.21-8.17,18.41-12.18,27.64c-1.37,3.16-1.48,6.66-2.1,10.02c-2.21,12.01-4.28,24.05-6.41,36.08
		c-1.02,5.76-2.1,11.51-3.04,17.29c-0.19,1.2-0.67,1.4-1.69,1.39c-5.54-0.04-11.07-0.05-16.61,0.01c-1.2,0.01-1.46-0.32-1.24-1.52
		c3.05-16.97,5.8-34,9.18-50.9c1.67-8.33,1.77-16.55,1.27-24.92c-0.61-10.3-0.94-20.61-1.41-30.91c-0.5-11.03-1.03-22.05-1.54-33.07
		c-0.33-7.2-0.64-14.4-1.01-21.61c-0.04-0.85,0.19-1.01,0.95-1c5.75,0.03,11.51,0.05,17.26-0.01c1.29-0.01,1.2,0.7,1.19,1.57
		c-0.07,11.98-0.14,23.97-0.16,35.96c-0.03,11.38-0.01,22.75-0.01,34.56c1.58-3.96,3.02-7.54,4.44-11.13
		c7.84-19.85,15.67-39.72,23.5-59.57c0.28-0.71,0.43-1.4,1.49-1.39c6.3,0.05,12.6,0.03,18.89,0.04
		C170.17,4.79,170.31,4.88,170.6,4.96"/>
	<path class="st2" d="M239.62,168.67c-6.68,0-13.36-0.04-20.03,0.03c-1.42,0.01-1.75-0.41-1.5-1.78
		c1.83-10.05,3.64-20.11,5.42-30.17c2.34-13.22,4.63-26.46,6.98-39.68c2.1-11.86,4.26-23.71,6.37-35.56
		c2.35-13.22,4.65-26.45,6.99-39.67c0.93-5.22,1.95-10.42,2.79-15.66c0.21-1.3,0.75-1.42,1.8-1.42c11.62,0.03,23.23,0.02,34.85,0.02
		c2.01,0,4.02,0.04,6.03-0.01c0.9-0.03,1.26,0.16,1.07,1.2c-0.97,5.28-1.94,10.55-2.75,15.84c-0.2,1.3-0.72,1.41-1.76,1.4
		c-7.06-0.04-14.12,0-21.17-0.04c-1.13-0.01-1.48,0.23-1.69,1.49c-2.8,16.39-5.68,32.78-8.6,49.15c-0.25,1.38,0.46,1.16,1.22,1.16
		c6.95,0,13.9,0.05,20.85-0.04c1.57-0.02,1.77,0.46,1.49,1.88c-1,5.04-1.96,10.09-2.78,15.15c-0.21,1.32-0.72,1.54-1.87,1.54
		c-6.95-0.05-13.9,0.01-20.85-0.05c-1.25-0.01-1.59,0.38-1.8,1.61c-1.95,11.5-3.98,22.98-5.99,34.46
		c-1.12,6.42-2.24,12.85-3.4,19.26c-0.22,1.22,0.17,1.45,1.3,1.43c6.9-0.05,13.79,0,20.68-0.05c1.27-0.01,1.5,0.22,1.24,1.55
		c-1,5.15-1.85,10.34-2.71,15.52c-0.19,1.13-0.62,1.49-1.79,1.48C253.19,168.63,246.4,168.67,239.62,168.67"/>
	<path class="st2" d="M645.04,87.95c3.98,3.58,5.41,8.08,4.98,13.42c-0.5,6.12-1.89,12.08-2.92,18.1
		c-1.92,11.22-4.01,22.4-6.02,33.61c-0.96,5.33-1.96,10.65-2.85,15.99c-0.16,0.98-0.56,1.09-1.36,1.09
		c-6.79-0.02-13.57-0.04-20.36,0.02c-1.13,0.01-1.38-0.33-1.18-1.4c0.94-5.17,1.85-10.33,2.76-15.51
		c1.91-10.94,3.79-21.89,5.71-32.83c1.02-5.88,2.07-11.75,3.15-17.62c0.66-3.58-0.42-4.94-4.04-4.94c-3.91,0-7.82,0.02-11.73-0.02
		c-0.84-0.01-1.23,0.18-1.39,1.13c-2.69,15.86-5.42,31.71-8.15,47.56c-1.28,7.46-2.63,14.91-3.88,22.38
		c-0.19,1.12-0.72,1.25-1.65,1.24c-6.63-0.03-13.25-0.06-19.87,0.02c-1.34,0.01-1.53-0.4-1.32-1.59c1.28-7.01,2.52-14.03,3.76-21.06
		c2.13-12.14,4.22-24.28,6.35-36.42c1.99-11.37,4.02-22.74,6.01-34.12c2.13-12.14,4.24-24.28,6.37-36.42
		c1.99-11.38,3.98-22.75,6.01-34.12c0.59-3.27,0.64-3.26,3.92-3.26c13.46,0,26.93,0,40.4,0c8.99,0,16.06,6.54,16.62,15.7
		c0.19,3.19-0.88,6.33-1.42,9.48c-1.08,6.24-2.19,12.47-3.27,18.71c-1.38,7.9-2.77,15.8-4.12,23.7c-0.41,2.39-0.67,4.81-1.47,7.1
		C652.53,82.21,650.36,84.6,645.04,87.95 M635.93,87.35c1.79-0.49,3.17-0.86,4.55-1.25c6-1.69,10-5.42,11.26-11.79
		c0.88-4.44,1.57-8.93,2.34-13.39c1.82-10.46,3.65-20.9,5.45-31.36c0.6-3.49,1.53-6.97,1.62-10.48c0.16-6.46-6.08-12.53-12.4-12.53
		c-13.47-0.01-26.94,0.03-40.4-0.05c-1.5-0.01-1.86,0.57-2.08,1.86c-2.71,15.58-5.45,31.14-8.17,46.72
		c-3.51,20.09-6.99,40.18-10.5,60.27c-2.93,16.77-5.88,33.54-8.88,50.29c-0.22,1.23,0.1,1.35,1.13,1.34
		c4.56-0.04,9.12-0.06,13.68,0.01c1.08,0.01,1.39-0.41,1.55-1.36c1.17-6.92,2.38-13.83,3.58-20.75c2.83-16.34,5.67-32.68,8.46-49.03
		c0.16-0.94,0.48-1.19,1.33-1.18c5.26,0.05,10.53,0.01,15.79,0.12c4.08,0.08,6.75,3.32,6.04,7.46c-1.82,10.73-3.76,21.45-5.63,32.17
		c-1.82,10.4-3.61,20.81-5.46,31.2c-0.18,0.99-0.14,1.37,0.99,1.36c4.67-0.06,9.34-0.05,14.01-0.01c0.98,0.01,1.26-0.34,1.41-1.3
		c0.56-3.49,1.25-6.96,1.87-10.44c2.45-13.65,4.94-27.3,7.34-40.97c0.86-4.89,2.11-9.74,2.13-14.77c0.02-5.22-2.43-8.87-7.2-10.67
		C638.57,88.4,637.43,87.94,635.93,87.35"/>
	<path class="st2" d="M497.62,68.34c2.16-5.45,4.33-10.89,6.48-16.35c6.26-15.86,12.52-31.73,18.76-47.6
		c0.27-0.7,0.47-1.22,1.42-1.21c7.59,0.05,15.19,0.03,22.93,0.03c-2.1,4.78-4.14,9.46-6.19,14.13
		c-9.78,22.21-19.55,44.41-29.33,66.62c-2.97,6.75-5.96,13.49-8.92,20.24c-1.35,3.07-1.48,6.44-2.07,9.69
		c-2.22,12.07-4.31,24.16-6.46,36.24c-1.11,6.26-2.28,12.5-3.3,18.77c-0.19,1.16-0.65,1.28-1.58,1.27
		c-6.57-0.03-13.14-0.06-19.71,0.03c-1.38,0.02-1.5-0.46-1.29-1.61c1.05-5.65,2.06-11.3,3.07-16.96
		c2.35-13.16,4.41-26.39,7.12-39.48c1.65-7.95,0.64-15.79,0.37-23.66c-0.45-13.42-1.17-26.82-1.79-40.23
		c-0.52-11.14-1.06-22.27-1.58-33.41c-0.16-3.49-0.23-6.99-0.42-10.48c-0.05-0.99,0.26-1.18,1.15-1.17
		c6.68,0.04,13.36,0.07,20.04-0.02c1.4-0.01,1.24,0.73,1.24,1.64c-0.07,20.71-0.14,41.41-0.2,62.11c0,0.44,0,0.89,0,1.33
		C497.44,68.28,497.53,68.31,497.62,68.34 M494.37,85.35c-0.1-0.02-0.19-0.03-0.29-0.05c0-3.21-0.01-6.42,0-9.63
		c0.09-22.48,0.17-44.95,0.32-67.42c0.01-1.49-0.37-1.83-1.78-1.79c-4.18,0.1-8.36,0.1-12.54,0c-1.35-0.03-1.74,0.29-1.66,1.7
		c0.39,6.59,0.7,13.18,0.99,19.77c0.6,13.29,1.15,26.59,1.76,39.89c0.48,10.53,1.05,21.05,1.47,31.58c0.09,2.26,0.48,4.53,0.09,6.8
		c-0.9,5.23-1.8,10.46-2.73,15.68c-2.61,14.63-5.21,29.26-7.87,43.88c-0.19,1.03,0.03,1.22,0.98,1.21c4.56-0.04,9.12-0.04,13.68,0
		c0.93,0.01,1.29-0.24,1.46-1.25c0.94-5.72,1.99-11.42,3-17.14c2.14-12.03,4.25-24.05,6.44-36.07c0.54-2.98,0.61-6.11,1.83-8.9
		c12.95-29.52,25.96-59.01,38.95-88.51c1.24-2.8,2.47-5.6,3.78-8.61c-5.52,0-10.78,0.02-16.03-0.02c-0.95-0.01-0.97,0.68-1.2,1.25
		c-6.83,17.29-13.66,34.58-20.49,51.88C501.15,68.18,497.76,76.76,494.37,85.35"/>
	<path class="st2" d="M584.25,73.54c-1.27,6.92-2.56,13.75-3.76,20.6c-0.19,1.11-0.9,0.76-1.46,0.76
		c-6.74,0.03-13.47,0.02-20.2,0.02c-2.45,0-2.4,0.01-2.83,2.51c-1.99,11.49-4.01,22.98-6.02,34.47c-0.9,5.17-1.8,10.34-2.74,15.51
		c-0.18,1.01,0.03,1.32,1.11,1.32c6.95-0.05,13.9,0,20.85-0.04c1.14-0.01,1.58,0.03,1.3,1.5c-1.22,6.23-2.31,12.5-3.34,18.77
		c-0.18,1.06-0.56,1.23-1.45,1.23c-14.72-0.02-29.44-0.04-44.15,0.02c-1.49,0-1.22-0.72-1.06-1.6c1.9-10.67,3.82-21.34,5.7-32.01
		c2.24-12.62,4.44-25.25,6.68-37.87c2-11.26,4.04-22.52,6.04-33.79c2.45-13.82,4.88-27.65,7.32-41.47
		c1.11-6.26,2.24-12.51,3.33-18.77c0.18-1.06,0.47-1.52,1.7-1.51c14.56,0.07,29.11,0.06,43.66,0.01c1.48,0,1.58,0.41,1.34,1.77
		c-1.11,6.03-2.12,12.09-3.08,18.15c-0.2,1.27-0.61,1.71-1.94,1.69c-7.01-0.07-14.01,0-21.02-0.06c-1.15-0.01-1.6,0.31-1.8,1.46
		c-2.61,15.26-5.22,30.51-7.94,45.75c-0.28,1.57,0.26,1.54,1.38,1.53c7.06-0.03,14.12-0.02,21.18-0.01
		C583.4,73.46,583.77,73.51,584.25,73.54 M592.71,6.54h-1.78c-12.22,0-24.44,0.04-36.65-0.05c-1.6-0.01-1.94,0.6-2.17,1.95
		c-1.62,9.48-3.28,18.95-4.96,28.41c-3.65,20.52-7.33,41.03-10.98,61.54c-3.98,22.42-7.92,44.85-11.92,67.27
		c-0.2,1.1,0.02,1.3,1.05,1.3c12.54-0.03,25.09-0.03,37.63-0.01c0.98,0,1.4-0.22,1.57-1.32c0.64-4.04,1.38-8.07,2.17-12.08
		c0.25-1.29,0.01-1.7-1.38-1.69c-6.89,0.07-13.79,0.02-20.69,0.04c-0.97,0-1.41-0.01-1.16-1.32c1.54-8.37,2.95-16.77,4.4-25.16
		c1.88-10.78,3.78-21.56,5.63-32.34c0.18-1.05,0.56-1.4,1.66-1.39c7.06,0.06,14.12,0.01,21.18,0.04c0.94,0,1.41-0.13,1.59-1.28
		c0.65-4.15,1.38-8.29,2.25-12.39c0.29-1.38-0.15-1.41-1.21-1.4c-6.95,0.03-13.9-0.03-20.85,0.04c-1.34,0.01-1.69-0.37-1.45-1.68
		c1.16-6.37,2.26-12.74,3.38-19.1c1.92-10.95,3.86-21.88,5.71-32.84c0.21-1.23,0.56-1.62,1.81-1.61c7.11,0.07,14.23,0.04,21.34,0.03
		c0.59,0,1.25,0.25,1.42-0.81C591.05,16,591.89,11.34,592.71,6.54"/>
	<path class="st2" d="M389.81,170.15c1.92-5.97,3.78-11.77,5.66-17.56c12.12-37.53,24.24-75.06,36.36-112.6
		c3.82-11.84,7.62-23.69,11.41-35.54c0.27-0.86,0.6-1.29,1.64-1.28c6.52,0.07,13.03,0.05,19.55,0.01c1.02,0,1.33,0.18,1.3,1.35
		c-0.57,17.41-1.07,34.82-1.61,52.23c-0.48,15.52-1.02,31.05-1.5,46.57c-0.5,16.19-0.95,32.38-1.44,48.57
		c-0.17,5.71-0.41,11.42-0.58,17.13c-0.03,0.83-0.19,1.14-1.08,1.14c-6.41-0.04-12.82-0.04-19.22,0c-0.99,0.01-1.12-0.34-1.08-1.26
		c0.42-8.08,0.76-16.17,1.2-24.26c0.07-1.21-0.28-1.48-1.4-1.47c-5.37,0.06-10.75,0.07-16.12,0c-1.16-0.02-1.55,0.41-1.86,1.49
		c-2.21,7.8-4.56,15.55-6.72,23.36c-0.47,1.71-1.15,2.19-2.86,2.16c-6.57-0.12-13.14-0.05-19.71-0.05H389.81z M459.96,86.64h0.03
		c0.29-10.54,0.55-21.08,0.88-31.61c0.49-15.75,1.01-31.5,1.57-47.24c0.04-1.22-0.42-1.32-1.38-1.31
		c-4.56,0.04-9.12,0.07-13.68-0.02c-1.17-0.02-1.51,0.43-1.85,1.46c-9.71,30.16-19.45,60.3-29.18,90.45
		c-7.21,22.32-14.4,44.65-21.63,66.97c-0.43,1.32-0.26,1.68,1.16,1.65c4.61-0.09,9.23-0.08,13.85,0c1.19,0.02,1.66-0.35,2-1.53
		c2.26-8,4.64-15.98,6.92-23.98c0.31-1.08,0.7-1.49,1.87-1.47c7.28,0.07,14.55,0.07,21.83-0.01c1.39-0.01,1.53,0.45,1.46,1.69
		c-0.44,7.98-0.77,15.95-1.2,23.93c-0.06,1.12,0.25,1.4,1.31,1.38c4.02-0.06,8.04-0.08,12.06,0.01c1.3,0.03,1.61-0.38,1.64-1.66
		c0.31-12.48,0.69-24.96,1.07-37.44C459.08,114.14,459.52,100.39,459.96,86.64"/>
	<path class="st2" d="M393.63,3.21c-1.45,8.25-2.86,16.36-4.28,24.47c-2.24,12.8-4.47,25.59-6.71,38.39
		c-2,11.43-4.02,22.86-6.02,34.29c-2.24,12.79-4.46,25.59-6.69,38.39c-0.48,2.72-0.91,5.45-1.49,8.15c-0.32,1.47,0,1.85,1.51,1.83
		c6.68-0.09,13.36,0,20.04-0.07c1.46-0.01,1.89,0.16,1.55,1.85c-1.22,6.12-2.27,12.28-3.28,18.45c-0.18,1.05-0.58,1.2-1.47,1.2
		c-14.72-0.02-29.44-0.04-44.15,0.02c-1.53,0.01-1.19-0.8-1.05-1.63c1.34-7.56,2.71-15.11,4.05-22.67
		c2.35-13.23,4.66-26.46,7.01-39.69c2.1-11.86,4.23-23.71,6.34-35.57c2.13-12.03,4.24-24.06,6.37-36.09
		c1.76-9.96,3.55-19.91,5.29-29.87c0.19-1.09,0.5-1.51,1.71-1.5c6.57,0.09,13.14,0.04,19.71,0.04H393.63z M365.24,166.95
		c6.24,0,12.49-0.02,18.74,0.02c1.05,0.01,1.46-0.23,1.65-1.41c0.62-4.04,1.41-8.06,2.17-12.08c0.21-1.13,0.1-1.64-1.29-1.62
		c-6.95,0.08-13.9,0.03-20.86,0.05c-0.9,0-1.32,0.01-1.1-1.23c2.61-14.69,5.12-29.4,7.7-44.1c2.67-15.24,5.4-30.48,8.07-45.72
		c3.1-17.7,6.14-35.4,9.29-53.08c0.24-1.35-0.22-1.3-1.15-1.3c-4.29,0.03-8.58,0.09-12.87-0.03c-1.53-0.05-2.1,0.36-2.36,1.94
		c-2.35,13.78-4.78,27.56-7.22,41.33c-3.43,19.32-6.91,38.63-10.35,57.95c-3.43,19.32-6.81,38.65-10.28,57.96
		c-0.22,1.24,0.1,1.35,1.13,1.34C352.75,166.93,359,166.95,365.24,166.95"/>
	<path class="st2" d="M619.68,78.41c-2.66,0-5.32-0.06-7.98,0.03c-1.24,0.04-1.47-0.41-1.27-1.54c1.36-7.5,2.7-15.01,4.03-22.52
		c1.81-10.18,3.64-20.35,5.38-30.54c0.27-1.59,0.69-2.26,2.48-2.19c4.72,0.18,9.45,0.05,14.17,0.07c5.12,0.03,7.65,3.37,6.69,8.52
		c-2.17,11.73-4.24,23.49-6.34,35.24c-0.36,2.01-0.64,4.04-1.06,6.04c-0.86,4.05-4.2,6.82-8.28,6.89
		C624.89,78.45,622.28,78.41,619.68,78.41 M630.53,24.93L630.53,24.93c-2.12-0.01-4.24,0.03-6.35-0.03
		c-0.9-0.02-1.27,0.18-1.45,1.21c-2.76,15.8-5.56,31.58-8.45,47.35c-0.3,1.65,0.18,1.73,1.5,1.7c3.58-0.08,7.17-0.02,10.75-0.03
		c3.95,0,5.65-1.54,6.36-5.56c1.34-7.68,2.75-15.33,4.12-23c1.04-5.82,2.1-11.64,3.05-17.47c0.48-2.95-0.56-4.09-3.5-4.16
		C634.55,24.9,632.54,24.93,630.53,24.93"/>
	<path class="st2" d="M448.81,38.37c-0.25,5.21-0.49,10.41-0.74,15.62c-0.63,12.91-1.24,25.82-1.88,38.72
		c-0.52,10.36-1.06,20.72-1.58,31.08c-0.03,0.62-0.06,1.01-0.86,1c-6.67-0.03-13.35-0.02-20.26-0.02
		c8.38-28.91,16.72-57.68,25.06-86.44C448.63,38.35,448.72,38.36,448.81,38.37 M444.27,65.71c-0.08-0.02-0.16-0.04-0.24-0.06
		c-0.14,0.38-0.3,0.75-0.42,1.15c-5.16,17.83-10.31,35.66-15.5,53.48c-0.31,1.05-0.05,1.19,0.89,1.19c3.8-0.04,7.6-0.06,11.4,0.01
		c1.07,0.02,1.23-0.38,1.25-1.33c0.07-2.94,0.23-5.87,0.38-8.81c0.62-12.29,1.24-24.58,1.86-36.87
		C444.02,71.54,444.14,68.62,444.27,65.71"/>
	<path class="st2" d="M675.15,158.67c0,6.77-5.31,12.17-11.95,12.17c-6.53,0-11.82-5.39-11.85-12.16
		c-0.03-6.82,5.39-12.2,11.94-12.19C669.84,146.49,675.15,151.93,675.15,158.67 M672.84,158.68c0-5.42-4.28-9.82-9.57-9.84
		c-5.3-0.01-9.65,4.42-9.63,9.82c0.01,5.43,4.31,9.82,9.6,9.82C668.54,168.48,672.84,164.1,672.84,158.68"/>
	<path class="st2" d="M665.95,159.9c0.9,1.53,1.8,3.04,2.73,4.61c-0.15,0.01-0.26,0.04-0.36,0.04c-0.8,0-1.61-0.01-2.42,0.01
		c-0.25,0.01-0.38-0.09-0.5-0.31c-0.56-1.13-1.15-2.25-1.72-3.38c-0.09-0.18-0.18-0.27-0.4-0.25c-0.38,0.03-0.77,0.01-1.19,0.01
		v3.89h-2.76c-0.01-0.12-0.02-0.26-0.02-0.39c0-3.72,0-7.44-0.01-11.16c0-0.26,0.01-0.46,0.35-0.46c1.42-0.03,2.84-0.1,4.25-0.07
		c0.59,0.02,1.19,0.2,1.74,0.42c2.84,1.1,2.91,4.76,1.06,6.43C666.48,159.49,666.23,159.68,665.95,159.9 M662.11,158.28
		c0.68,0.07,1.34,0.11,1.98-0.17c0.69-0.31,1.04-0.94,0.99-1.73c-0.06-0.7-0.42-1.21-1.17-1.36c-0.57-0.12-1.18-0.09-1.8-0.13
		V158.28z"/>
	<path class="st0" d="M320.87,181.36h313.77c2.13,0,2.11,0,1.73,2.11c-0.72,4.02-1.51,8.04-2.1,12.08
		c-0.18,1.23-0.67,1.47-1.68,1.36c-0.32-0.03-0.65,0-0.98,0H4.74c-2.4,0-2.44-0.01-2.03-2.43c0.68-3.98,1.45-7.93,2.13-11.92
		c0.16-0.93,0.48-1.38,1.45-1.22c0.42,0.07,0.86,0.01,1.3,0.01H320.87z"/>
	<path class="st2" d="M337.27,87.58c5.49,2.92,7.42,7.5,7.04,13.44c-0.44,6.71-2.06,13.21-3.19,19.8
		c-2.36,13.78-4.89,27.53-7.35,41.29c-0.32,1.79-0.68,3.58-0.97,5.38c-0.14,0.86-0.47,1.21-1.38,1.2
		c-5.81-0.04-11.62-0.06-17.43,0.01c-1.39,0.01-1.19-0.75-1.04-1.58c1.24-7.02,2.5-14.04,3.73-21.06
		c2.54-14.43,5.03-28.86,7.61-43.28c0.78-4.35-1.79-6.62-5.4-6.43c-4.33,0.23-8.69,0.11-13.03,0.02c-1.14-0.03-1.45,0.41-1.62,1.42
		c-1.65,9.64-3.33,19.28-5,28.92c-1.8,10.4-3.59,20.81-5.39,31.21c-0.57,3.27-1.18,6.53-1.7,9.8c-0.12,0.78-0.39,0.98-1.13,0.98
		c-5.81-0.03-11.62-0.06-17.43,0.01c-1.35,0.01-1.23-0.66-1.08-1.55c1.46-8.28,2.92-16.55,4.37-24.83
		c2.13-12.14,4.24-24.28,6.37-36.43c1.99-11.37,4.01-22.75,6-34.13c2.14-12.19,4.25-24.39,6.39-36.59
		c1.72-9.79,3.49-19.59,5.16-29.39c0.18-1.09,0.75-1.01,1.46-1.01c3.04,0,6.08,0,9.12,0c10.86,0,21.72-0.03,32.58,0.01
		c7.77,0.03,14.19,6.18,14.63,14.03c0.15,2.78-0.7,5.47-1.16,8.19c-2.43,14.28-4.92,28.55-7.39,42.81c-0.33,1.91-0.62,3.83-1.09,5.7
		C347.41,81.77,343.43,85.66,337.27,87.58 M316.31,76.7h6.67c0.11,0,0.22,0,0.33,0c3.38-0.12,5.88-2.19,6.57-5.56
		c0.65-3.19,1.19-6.4,1.76-9.61c1.92-10.77,3.86-21.53,5.73-32.3c0.63-3.63-1.17-5.75-4.79-5.78c-4.61-0.03-9.23,0.04-13.84-0.04
		c-1.07-0.02-1.41,0.4-1.56,1.35c-0.34,2.18-0.71,4.36-1.1,6.54c-2.63,14.79-5.26,29.57-7.94,44.35c-0.19,1.07,0.24,1.07,0.99,1.06
		C311.54,76.69,313.93,76.7,316.31,76.7"/>
	<path class="st2" d="M60.95,93.47c-6.67,0-13.18,0.02-19.69-0.02c-0.89,0-0.93,0.59-1.03,1.17c-1.31,7.4-2.62,14.81-3.93,22.21
		c-1.81,10.28-3.63,20.57-5.44,30.85c-1.13,6.42-2.29,12.84-3.37,19.28c-0.2,1.21-0.51,1.77-1.89,1.75c-5.43-0.1-10.86-0.1-16.29,0
		c-1.43,0.03-1.64-0.48-1.41-1.72c1.6-8.75,3.18-17.49,4.74-26.24c2.02-11.3,3.99-22.61,6.02-33.91c1.69-9.42,3.44-18.82,5.12-28.23
		c1.58-8.87,3.11-17.75,4.68-26.62c1.2-6.73,2.45-13.45,3.64-20.18c1.51-8.54,3-17.08,4.44-25.63c0.19-1.11,0.6-1.43,1.68-1.42
		c5.54,0.06,11.08,0.06,16.62,0c1.27-0.01,1.35,0.38,1.14,1.53c-2.17,11.96-4.25,23.93-6.38,35.89
		c-1.87,10.51-3.73,21.01-5.66,31.51c-0.21,1.13,0.03,1.3,1.04,1.29c5.92-0.04,11.84-0.06,17.76,0.01c1.17,0.02,1.58-0.35,1.77-1.47
		c1.18-6.87,2.42-13.72,3.64-20.58c1.9-10.72,3.8-21.43,5.71-32.15c0.87-4.89,1.77-9.78,2.59-14.68c0.18-1.09,0.59-1.37,1.66-1.36
		c5.48,0.07,10.97,0.08,16.45,0c1.35-0.02,1.53,0.41,1.31,1.6c-1.58,8.7-3.12,17.41-4.67,26.12c-2.25,12.68-4.49,25.35-6.73,38.03
		c-2.21,12.46-4.44,24.92-6.65,37.38c-2.45,13.82-4.9,27.65-7.36,41.48c-1.07,6.04-2.19,12.07-3.2,18.11
		c-0.18,1.04-0.63,1.22-1.51,1.22c-5.65-0.03-11.29-0.04-16.94,0.01c-1.09,0.01-1.27-0.35-1.09-1.35
		c3.59-20.02,7.14-40.06,10.72-60.08C59.26,102.69,60.1,98.14,60.95,93.47"/>
	<path class="st2" d="M199.35,4.81c6.73,0,13.46-0.03,20.19,0.01c8.36,0.03,15.2,8.17,13.76,16.59
		c-2.43,14.22-5.01,28.41-7.53,42.61c-1.01,5.66-1.91,11.33-3.07,16.96c-1.78,8.6-8.75,14.33-17.36,14.38
		c-7.82,0.05-15.64,0.04-23.46-0.02c-1.15-0.01-1.54,0.3-1.75,1.47c-1.97,11.43-4.01,22.84-6.04,34.26
		c-2.17,12.19-4.36,24.37-6.51,36.56c-0.16,0.92-0.54,1.13-1.39,1.13c-5.7-0.04-11.4-0.06-17.1,0.02c-1.19,0.01-1.2-0.45-1.04-1.35
		c2.11-11.81,4.22-23.61,6.31-35.43c2.36-13.28,4.68-26.57,7.04-39.84c2.3-13.01,4.63-26.01,6.93-39.01
		c2.58-14.58,5.15-29.17,7.74-43.75c0.17-0.98,0.54-1.95,0.55-2.93c0.01-1.56,0.76-1.74,2.05-1.72c6.9,0.06,13.79,0.03,20.69,0.03
		V4.81z M191.86,76.7c2.22,0,4.45,0.02,6.68,0c3.93-0.04,6.36-2.04,7.09-5.93c2.56-13.79,5.12-27.58,7.65-41.38
		c0.69-3.78-1.13-5.94-4.93-5.95c-4.5-0.01-9.01,0.1-13.51-0.05c-1.6-0.05-1.92,0.65-2.16,1.99c-1.98,11.09-4.02,22.17-6.04,33.26
		c-1.01,5.54-2.01,11.08-3.05,16.62c-0.21,1.15,0.11,1.52,1.28,1.47C187.19,76.64,189.52,76.7,191.86,76.7"/>
	<path class="st2" d="M170.6,4.96c-1.69,3.86-3.34,7.68-5.02,11.49c-8.78,19.94-17.56,39.87-26.34,59.81
		c-4.06,9.21-8.17,18.41-12.18,27.64c-1.37,3.16-1.48,6.66-2.1,10.02c-2.21,12.01-4.28,24.05-6.41,36.08
		c-1.02,5.76-2.1,11.51-3.04,17.29c-0.19,1.2-0.67,1.4-1.69,1.39c-5.54-0.04-11.07-0.05-16.61,0.01c-1.2,0.01-1.46-0.32-1.24-1.52
		c3.05-16.97,5.8-34,9.18-50.9c1.67-8.33,1.77-16.55,1.27-24.92c-0.61-10.3-0.94-20.61-1.41-30.91c-0.5-11.03-1.03-22.05-1.54-33.07
		c-0.33-7.2-0.64-14.4-1.01-21.61c-0.04-0.85,0.19-1.01,0.95-1c5.75,0.03,11.51,0.05,17.26-0.01c1.29-0.01,1.2,0.7,1.19,1.57
		c-0.07,11.98-0.14,23.97-0.16,35.96c-0.03,11.38-0.01,22.75-0.01,34.56c1.58-3.96,3.02-7.54,4.44-11.13
		c7.84-19.85,15.67-39.72,23.5-59.57c0.28-0.71,0.43-1.4,1.49-1.39c6.3,0.05,12.6,0.03,18.89,0.04
		C170.17,4.79,170.31,4.88,170.6,4.96"/>
	<path class="st2" d="M239.62,168.67c-6.68,0-13.36-0.04-20.03,0.03c-1.42,0.01-1.75-0.41-1.5-1.78
		c1.83-10.05,3.64-20.11,5.42-30.17c2.34-13.22,4.63-26.46,6.98-39.68c2.1-11.86,4.26-23.71,6.37-35.56
		c2.35-13.22,4.65-26.45,6.99-39.67c0.93-5.22,1.95-10.42,2.79-15.66c0.21-1.3,0.75-1.42,1.8-1.42c11.62,0.03,23.23,0.02,34.85,0.02
		c2.01,0,4.02,0.04,6.03-0.01c0.9-0.03,1.26,0.16,1.07,1.2c-0.97,5.28-1.94,10.55-2.75,15.84c-0.2,1.3-0.72,1.41-1.76,1.4
		c-7.06-0.04-14.12,0-21.17-0.04c-1.13-0.01-1.48,0.23-1.69,1.49c-2.8,16.39-5.68,32.78-8.6,49.15c-0.25,1.38,0.46,1.16,1.22,1.16
		c6.95,0,13.9,0.05,20.85-0.04c1.57-0.02,1.77,0.46,1.49,1.88c-1,5.04-1.96,10.09-2.78,15.15c-0.21,1.32-0.72,1.54-1.87,1.54
		c-6.95-0.05-13.9,0.01-20.85-0.05c-1.25-0.01-1.59,0.38-1.8,1.61c-1.95,11.5-3.98,22.98-5.99,34.46
		c-1.12,6.42-2.24,12.85-3.4,19.26c-0.22,1.22,0.17,1.45,1.3,1.43c6.9-0.05,13.79,0,20.68-0.05c1.27-0.01,1.5,0.22,1.24,1.55
		c-1,5.15-1.85,10.34-2.71,15.52c-0.19,1.13-0.62,1.49-1.79,1.48C253.19,168.63,246.4,168.67,239.62,168.67"/>
	<path class="st2" d="M645.04,87.95c3.98,3.58,5.41,8.08,4.98,13.42c-0.5,6.12-1.89,12.08-2.92,18.1
		c-1.92,11.22-4.01,22.4-6.02,33.61c-0.96,5.33-1.96,10.65-2.85,15.99c-0.16,0.98-0.56,1.09-1.36,1.09
		c-6.79-0.02-13.57-0.04-20.36,0.02c-1.13,0.01-1.38-0.33-1.18-1.4c0.94-5.17,1.85-10.33,2.76-15.51
		c1.91-10.94,3.79-21.89,5.71-32.83c1.02-5.88,2.07-11.75,3.15-17.62c0.66-3.58-0.42-4.94-4.04-4.94c-3.91,0-7.82,0.02-11.73-0.02
		c-0.84-0.01-1.23,0.18-1.39,1.13c-2.69,15.86-5.42,31.71-8.15,47.56c-1.28,7.46-2.63,14.91-3.88,22.38
		c-0.19,1.12-0.72,1.25-1.65,1.24c-6.63-0.03-13.25-0.06-19.87,0.02c-1.34,0.01-1.53-0.4-1.32-1.59c1.28-7.01,2.52-14.03,3.76-21.06
		c2.13-12.14,4.22-24.28,6.35-36.42c1.99-11.37,4.02-22.74,6.01-34.12c2.13-12.14,4.24-24.28,6.37-36.42
		c1.99-11.38,3.98-22.75,6.01-34.12c0.59-3.27,0.64-3.26,3.92-3.26c13.46,0,26.93,0,40.4,0c8.99,0,16.06,6.54,16.62,15.7
		c0.19,3.19-0.88,6.33-1.42,9.48c-1.08,6.24-2.19,12.47-3.27,18.71c-1.38,7.9-2.77,15.8-4.12,23.7c-0.41,2.39-0.67,4.81-1.47,7.1
		C652.53,82.21,650.36,84.6,645.04,87.95 M635.93,87.35c1.79-0.49,3.17-0.86,4.55-1.25c6-1.69,10-5.42,11.26-11.79
		c0.88-4.44,1.57-8.93,2.34-13.39c1.82-10.46,3.65-20.9,5.45-31.36c0.6-3.49,1.53-6.97,1.62-10.48c0.16-6.46-6.08-12.53-12.4-12.53
		c-13.47-0.01-26.94,0.03-40.4-0.05c-1.5-0.01-1.86,0.57-2.08,1.86c-2.71,15.58-5.45,31.14-8.17,46.72
		c-3.51,20.09-6.99,40.18-10.5,60.27c-2.93,16.77-5.88,33.54-8.88,50.29c-0.22,1.23,0.1,1.35,1.13,1.34
		c4.56-0.04,9.12-0.06,13.68,0.01c1.08,0.01,1.39-0.41,1.55-1.36c1.17-6.92,2.38-13.83,3.58-20.75c2.83-16.34,5.67-32.68,8.46-49.03
		c0.16-0.94,0.48-1.19,1.33-1.18c5.26,0.05,10.53,0.01,15.79,0.12c4.08,0.08,6.75,3.32,6.04,7.46c-1.82,10.73-3.76,21.45-5.63,32.17
		c-1.82,10.4-3.61,20.81-5.46,31.2c-0.18,0.99-0.14,1.37,0.99,1.36c4.67-0.06,9.34-0.05,14.01-0.01c0.98,0.01,1.26-0.34,1.41-1.3
		c0.56-3.49,1.25-6.96,1.87-10.44c2.45-13.65,4.94-27.3,7.34-40.97c0.86-4.89,2.11-9.74,2.13-14.77c0.02-5.22-2.43-8.87-7.2-10.67
		C638.57,88.4,637.43,87.94,635.93,87.35"/>
	<path class="st2" d="M497.62,68.34c2.16-5.45,4.33-10.89,6.48-16.35c6.26-15.86,12.52-31.73,18.76-47.6
		c0.27-0.7,0.47-1.22,1.42-1.21c7.59,0.05,15.19,0.03,22.93,0.03c-2.1,4.78-4.14,9.46-6.19,14.13
		c-9.78,22.21-19.55,44.41-29.33,66.62c-2.97,6.75-5.96,13.49-8.92,20.24c-1.35,3.07-1.48,6.44-2.07,9.69
		c-2.22,12.07-4.31,24.16-6.46,36.24c-1.11,6.26-2.28,12.5-3.3,18.77c-0.19,1.16-0.65,1.28-1.58,1.27
		c-6.57-0.03-13.14-0.06-19.71,0.03c-1.38,0.02-1.5-0.46-1.29-1.61c1.05-5.65,2.06-11.3,3.07-16.96
		c2.35-13.16,4.41-26.39,7.12-39.48c1.65-7.95,0.64-15.79,0.37-23.66c-0.45-13.42-1.17-26.82-1.79-40.23
		c-0.52-11.14-1.06-22.27-1.58-33.41c-0.16-3.49-0.23-6.99-0.42-10.48c-0.05-0.99,0.26-1.18,1.15-1.17
		c6.68,0.04,13.36,0.07,20.04-0.02c1.4-0.01,1.24,0.73,1.24,1.64c-0.07,20.71-0.14,41.41-0.2,62.11c0,0.44,0,0.89,0,1.33
		C497.44,68.28,497.53,68.31,497.62,68.34 M494.37,85.35c-0.1-0.02-0.19-0.03-0.29-0.05c0-3.21-0.01-6.42,0-9.63
		c0.09-22.48,0.17-44.95,0.32-67.42c0.01-1.49-0.37-1.83-1.78-1.79c-4.18,0.1-8.36,0.1-12.54,0c-1.35-0.03-1.74,0.29-1.66,1.7
		c0.39,6.59,0.7,13.18,0.99,19.77c0.6,13.29,1.15,26.59,1.76,39.89c0.48,10.53,1.05,21.05,1.47,31.58c0.09,2.26,0.48,4.53,0.09,6.8
		c-0.9,5.23-1.8,10.46-2.73,15.68c-2.61,14.63-5.21,29.26-7.87,43.88c-0.19,1.03,0.03,1.22,0.98,1.21c4.56-0.04,9.12-0.04,13.68,0
		c0.93,0.01,1.29-0.24,1.46-1.25c0.94-5.72,1.99-11.42,3-17.14c2.14-12.03,4.25-24.05,6.44-36.07c0.54-2.98,0.61-6.11,1.83-8.9
		c12.95-29.52,25.96-59.01,38.95-88.51c1.24-2.8,2.47-5.6,3.78-8.61c-5.52,0-10.78,0.02-16.03-0.02c-0.95-0.01-0.97,0.68-1.2,1.25
		c-6.83,17.29-13.66,34.58-20.49,51.88C501.15,68.18,497.76,76.76,494.37,85.35"/>
	<path class="st2" d="M584.25,73.54c-1.27,6.92-2.56,13.75-3.76,20.6c-0.19,1.11-0.9,0.76-1.46,0.76
		c-6.74,0.03-13.47,0.02-20.2,0.02c-2.45,0-2.4,0.01-2.83,2.51c-1.99,11.49-4.01,22.98-6.02,34.47c-0.9,5.17-1.8,10.34-2.74,15.51
		c-0.18,1.01,0.03,1.32,1.11,1.32c6.95-0.05,13.9,0,20.85-0.04c1.14-0.01,1.58,0.03,1.3,1.5c-1.22,6.23-2.31,12.5-3.34,18.77
		c-0.18,1.06-0.56,1.23-1.45,1.23c-14.72-0.02-29.44-0.04-44.15,0.02c-1.49,0-1.22-0.72-1.06-1.6c1.9-10.67,3.82-21.34,5.7-32.01
		c2.24-12.62,4.44-25.25,6.68-37.87c2-11.26,4.04-22.52,6.04-33.79c2.45-13.82,4.88-27.65,7.32-41.47
		c1.11-6.26,2.24-12.51,3.33-18.77c0.18-1.06,0.47-1.52,1.7-1.51c14.56,0.07,29.11,0.06,43.66,0.01c1.48,0,1.58,0.41,1.34,1.77
		c-1.11,6.03-2.12,12.09-3.08,18.15c-0.2,1.27-0.61,1.71-1.94,1.69c-7.01-0.07-14.01,0-21.02-0.06c-1.15-0.01-1.6,0.31-1.8,1.46
		c-2.61,15.26-5.22,30.51-7.94,45.75c-0.28,1.57,0.26,1.54,1.38,1.53c7.06-0.03,14.12-0.02,21.18-0.01
		C583.4,73.46,583.77,73.51,584.25,73.54 M592.71,6.54h-1.78c-12.22,0-24.44,0.04-36.65-0.05c-1.6-0.01-1.94,0.6-2.17,1.95
		c-1.62,9.48-3.28,18.95-4.96,28.41c-3.65,20.52-7.33,41.03-10.98,61.54c-3.98,22.42-7.92,44.85-11.92,67.27
		c-0.2,1.1,0.02,1.3,1.05,1.3c12.54-0.03,25.09-0.03,37.63-0.01c0.98,0,1.4-0.22,1.57-1.32c0.64-4.04,1.38-8.07,2.17-12.08
		c0.25-1.29,0.01-1.7-1.38-1.69c-6.89,0.07-13.79,0.02-20.69,0.04c-0.97,0-1.41-0.01-1.16-1.32c1.54-8.37,2.95-16.77,4.4-25.16
		c1.88-10.78,3.78-21.56,5.63-32.34c0.18-1.05,0.56-1.4,1.66-1.39c7.06,0.06,14.12,0.01,21.18,0.04c0.94,0,1.41-0.13,1.59-1.28
		c0.65-4.15,1.38-8.29,2.25-12.39c0.29-1.38-0.15-1.41-1.21-1.4c-6.95,0.03-13.9-0.03-20.85,0.04c-1.34,0.01-1.69-0.37-1.45-1.68
		c1.16-6.37,2.26-12.74,3.38-19.1c1.92-10.95,3.86-21.88,5.71-32.84c0.21-1.23,0.56-1.62,1.81-1.61c7.11,0.07,14.23,0.04,21.34,0.03
		c0.59,0,1.25,0.25,1.42-0.81C591.05,16,591.89,11.34,592.71,6.54"/>
	<path class="st2" d="M389.81,170.15c1.92-5.97,3.78-11.77,5.66-17.56c12.12-37.53,24.24-75.06,36.36-112.6
		c3.82-11.84,7.62-23.69,11.41-35.54c0.27-0.86,0.6-1.29,1.64-1.28c6.52,0.07,13.03,0.05,19.55,0.01c1.02,0,1.33,0.18,1.3,1.35
		c-0.57,17.41-1.07,34.82-1.61,52.23c-0.48,15.52-1.02,31.05-1.5,46.57c-0.5,16.19-0.95,32.38-1.44,48.57
		c-0.17,5.71-0.41,11.42-0.58,17.13c-0.03,0.83-0.19,1.14-1.08,1.14c-6.41-0.04-12.82-0.04-19.22,0c-0.99,0.01-1.12-0.34-1.08-1.26
		c0.42-8.08,0.76-16.17,1.2-24.26c0.07-1.21-0.28-1.48-1.4-1.47c-5.37,0.06-10.75,0.07-16.12,0c-1.16-0.02-1.55,0.41-1.86,1.49
		c-2.21,7.8-4.56,15.55-6.72,23.36c-0.47,1.71-1.15,2.19-2.86,2.16c-6.57-0.12-13.14-0.05-19.71-0.05H389.81z M459.96,86.64h0.03
		c0.29-10.54,0.55-21.08,0.88-31.61c0.49-15.75,1.01-31.5,1.57-47.24c0.04-1.22-0.42-1.32-1.38-1.31
		c-4.56,0.04-9.12,0.07-13.68-0.02c-1.17-0.02-1.51,0.43-1.85,1.46c-9.71,30.16-19.45,60.3-29.18,90.45
		c-7.21,22.32-14.4,44.65-21.63,66.97c-0.43,1.32-0.26,1.68,1.16,1.65c4.61-0.09,9.23-0.08,13.85,0c1.19,0.02,1.66-0.35,2-1.53
		c2.26-8,4.64-15.98,6.92-23.98c0.31-1.08,0.7-1.49,1.87-1.47c7.28,0.07,14.55,0.07,21.83-0.01c1.39-0.01,1.53,0.45,1.46,1.69
		c-0.44,7.98-0.77,15.95-1.2,23.93c-0.06,1.12,0.25,1.4,1.31,1.38c4.02-0.06,8.04-0.08,12.06,0.01c1.3,0.03,1.61-0.38,1.64-1.66
		c0.31-12.48,0.69-24.96,1.07-37.44C459.08,114.14,459.52,100.39,459.96,86.64"/>
	<path class="st2" d="M393.63,3.21c-1.45,8.25-2.86,16.36-4.28,24.47c-2.24,12.8-4.47,25.59-6.71,38.39
		c-2,11.43-4.02,22.86-6.02,34.29c-2.24,12.79-4.46,25.59-6.69,38.39c-0.48,2.72-0.91,5.45-1.49,8.15c-0.32,1.47,0,1.85,1.51,1.83
		c6.68-0.09,13.36,0,20.04-0.07c1.46-0.01,1.89,0.16,1.55,1.85c-1.22,6.12-2.27,12.28-3.28,18.45c-0.18,1.05-0.58,1.2-1.47,1.2
		c-14.72-0.02-29.44-0.04-44.15,0.02c-1.53,0.01-1.19-0.8-1.05-1.63c1.34-7.56,2.71-15.11,4.05-22.67
		c2.35-13.23,4.66-26.46,7.01-39.69c2.1-11.86,4.23-23.71,6.34-35.57c2.13-12.03,4.24-24.06,6.37-36.09
		c1.76-9.96,3.55-19.91,5.29-29.87c0.19-1.09,0.5-1.51,1.71-1.5c6.57,0.09,13.14,0.04,19.71,0.04H393.63z M365.24,166.95
		c6.24,0,12.49-0.02,18.74,0.02c1.05,0.01,1.46-0.23,1.65-1.41c0.62-4.04,1.41-8.06,2.17-12.08c0.21-1.13,0.1-1.64-1.29-1.62
		c-6.95,0.08-13.9,0.03-20.86,0.05c-0.9,0-1.32,0.01-1.1-1.23c2.61-14.69,5.12-29.4,7.7-44.1c2.67-15.24,5.4-30.48,8.07-45.72
		c3.1-17.7,6.14-35.4,9.29-53.08c0.24-1.35-0.22-1.3-1.15-1.3c-4.29,0.03-8.58,0.09-12.87-0.03c-1.53-0.05-2.1,0.36-2.36,1.94
		c-2.35,13.78-4.78,27.56-7.22,41.33c-3.43,19.32-6.91,38.63-10.35,57.95c-3.43,19.32-6.81,38.65-10.28,57.96
		c-0.22,1.24,0.1,1.35,1.13,1.34C352.75,166.93,359,166.95,365.24,166.95"/>
	<path class="st2" d="M619.68,78.41c-2.66,0-5.32-0.06-7.98,0.03c-1.24,0.04-1.47-0.41-1.27-1.54c1.36-7.5,2.7-15.01,4.03-22.52
		c1.81-10.18,3.64-20.35,5.38-30.54c0.27-1.59,0.69-2.26,2.48-2.19c4.72,0.18,9.45,0.05,14.17,0.07c5.12,0.03,7.65,3.37,6.69,8.52
		c-2.17,11.73-4.24,23.49-6.34,35.24c-0.36,2.01-0.64,4.04-1.06,6.04c-0.86,4.05-4.2,6.82-8.28,6.89
		C624.89,78.45,622.28,78.41,619.68,78.41 M630.53,24.93L630.53,24.93c-2.12-0.01-4.24,0.03-6.35-0.03
		c-0.9-0.02-1.27,0.18-1.45,1.21c-2.76,15.8-5.56,31.58-8.45,47.35c-0.3,1.65,0.18,1.73,1.5,1.7c3.58-0.08,7.17-0.02,10.75-0.03
		c3.95,0,5.65-1.54,6.36-5.56c1.34-7.68,2.75-15.33,4.12-23c1.04-5.82,2.1-11.64,3.05-17.47c0.48-2.95-0.56-4.09-3.5-4.16
		C634.55,24.9,632.54,24.93,630.53,24.93"/>
	<path class="st2" d="M448.81,38.37c-0.25,5.21-0.49,10.41-0.74,15.62c-0.63,12.91-1.24,25.82-1.88,38.72
		c-0.52,10.36-1.06,20.72-1.58,31.08c-0.03,0.62-0.06,1.01-0.86,1c-6.67-0.03-13.35-0.02-20.26-0.02
		c8.38-28.91,16.72-57.68,25.06-86.44C448.63,38.35,448.72,38.36,448.81,38.37 M444.27,65.71c-0.08-0.02-0.16-0.04-0.24-0.06
		c-0.14,0.38-0.3,0.75-0.42,1.15c-5.16,17.83-10.31,35.66-15.5,53.48c-0.31,1.05-0.05,1.19,0.89,1.19c3.8-0.04,7.6-0.06,11.4,0.01
		c1.07,0.02,1.23-0.38,1.25-1.33c0.07-2.94,0.23-5.87,0.38-8.81c0.62-12.29,1.24-24.58,1.86-36.87
		C444.02,71.54,444.14,68.62,444.27,65.71"/>
</g>
</svg>
